<?xml version="1.0" encoding="UTF-8"?>
<svg xmlns="http://www.w3.org/2000/svg" viewBox="0 0 400 500" width="400" height="500">
  <defs>
    <clipPath id="deerClip">
      <path d="M200,500 
        C185,500 175,490 172,480
        L168,450 
        C166,440 164,430 163,420
        L160,395
        C158,385 156,375 155,370
        L153,360
        C152,355 150,350 150,345
        L148,330
        C147,322 145,318 142,315
        L138,310
        C135,308 130,305 128,300
        L125,290
        C123,282 122,275 122,270
        L122,260
        C122,255 123,250 125,245
        L128,235
        C130,230 130,225 128,220
        L125,215
        C122,210 120,205 120,200
        L120,190
        C120,182 122,175 125,170
        L130,162
        C133,158 135,155 135,150
        L135,145
        C135,140 133,135 130,132
        L125,128
        C120,125 115,122 112,118
        L108,112
        C105,108 102,104 100,100
        L95,90
        C92,85 88,78 85,72
        L80,62
        C77,55 73,48 70,42
        L67,35
        C65,30 62,24 60,18
        L58,10
        C57,6 58,3 62,2
        C65,1 68,3 70,6
        L75,15
        C78,20 82,26 85,30
        L90,38
        C94,42 98,44 102,48
        L108,55
        C112,58 116,62 118,65
        L122,72
        C125,78 128,82 130,85
        L135,92
        C138,97 142,100 145,102
        L150,105
        C154,107 158,108 160,110
        L165,115
        C168,118 170,122 172,128
        L175,135
        C177,140 178,145 180,148
        L184,155
        C187,160 190,162 195,163
        L200,164
        L205,163
        C210,162 213,160 216,155
        L220,148
        C222,145 223,140 225,135
        L228,128
        C230,122 232,118 235,115
        L240,110
        C242,108 246,107 250,105
        L255,102
        C258,100 262,97 265,92
        L270,85
        C272,82 275,78 278,72
        L282,65
        C284,62 288,58 292,55
        L298,48
        C302,44 306,42 310,38
        L315,30
        C318,26 322,20 325,15
        L330,6
        C332,3 335,1 338,2
        C342,3 343,6 342,10
        L340,18
        C338,24 335,30 333,35
        L330,42
        C327,48 323,55 320,62
        L315,72
        C312,78 308,85 305,90
        L300,100
        C298,104 295,108 292,112
        L288,118
        C285,122 280,125 275,128
        L270,132
        C267,135 265,140 265,145
        L265,150
        C265,155 267,158 270,162
        L275,170
        C278,175 280,182 280,190
        L280,200
        C280,205 278,210 275,215
        L272,220
        C270,225 270,230 272,235
        L275,245
        C277,250 278,255 278,260
        L278,270
        C278,275 277,282 275,290
        L272,300
        C270,305 265,308 262,310
        L258,315
        C255,318 253,322 252,330
        L250,345
        C250,350 248,355 247,360
        L245,370
        C244,375 242,385 240,395
        L237,420
        C236,430 234,440 232,450
        L228,480
        C225,490 215,500 200,500 Z"/>
    </clipPath>
  </defs>
  <!-- The silhouette -->
  <path fill="black" d="M200,500 
    C185,500 175,490 172,480
    L168,450 C166,440 164,430 163,420
    L160,395 C158,385 156,375 155,370
    L153,360 C152,355 150,350 150,345
    L148,330 C147,322 145,318 142,315
    L138,310 C135,308 130,305 128,300
    L125,290 C123,282 122,275 122,270
    L122,260 C122,255 123,250 125,245
    L128,235 C130,230 130,225 128,220
    L125,215 C122,210 120,205 120,200
    L120,190 C120,182 122,175 125,170
    L130,162 C133,158 135,155 135,150
    L135,145 C135,140 133,135 130,132
    L125,128 C120,125 115,122 112,118
    L108,112 C105,108 102,104 100,100
    L95,90 C92,85 88,78 85,72
    L80,62 C77,55 73,48 70,42
    L67,35 C65,30 62,24 60,18
    L58,10 C57,6 58,3 62,2
    C65,1 68,3 70,6
    L75,15 C78,20 82,26 85,30
    L90,38 C94,42 98,44 102,48
    L108,55 C112,58 116,62 118,65
    L122,72 C125,78 128,82 130,85
    L135,92 C138,97 142,100 145,102
    L150,105 C154,107 158,108 160,110
    L165,115 C168,118 170,122 172,128
    L175,135 C177,140 178,145 180,148
    L184,155 C187,160 190,162 195,163
    L200,164 L205,163
    C210,162 213,160 216,155
    L220,148 C222,145 223,140 225,135
    L228,128 C230,122 232,118 235,115
    L240,110 C242,108 246,107 250,105
    L255,102 C258,100 262,97 265,92
    L270,85 C272,82 275,78 278,72
    L282,65 C284,62 288,58 292,55
    L298,48 C302,44 306,42 310,38
    L315,30 C318,26 322,20 325,15
    L330,6 C332,3 335,1 338,2
    C342,3 343,6 342,10
    L340,18 C338,24 335,30 333,35
    L330,42 C327,48 323,55 320,62
    L315,72 C312,78 308,85 305,90
    L300,100 C298,104 295,108 292,112
    L288,118 C285,122 280,125 275,128
    L270,132 C267,135 265,140 265,145
    L265,150 C265,155 267,158 270,162
    L275,170 C278,175 280,182 280,190
    L280,200 C280,205 278,210 275,215
    L272,220 C270,225 270,230 272,235
    L275,245 C277,250 278,255 278,260
    L278,270 C278,275 277,282 275,290
    L272,300 C270,305 265,308 262,310
    L258,315 C255,318 253,322 252,330
    L250,345 C250,350 248,355 247,360
    L245,370 C244,375 242,385 240,395
    L237,420 C236,430 234,440 232,450
    L228,480 C225,490 215,500 200,500 Z"/>
  <!-- Ears -->
  <path fill="black" d="M160,165 C155,155 148,148 142,142 C138,138 134,136 132,138 C130,140 132,145 135,150 C138,155 145,160 152,164 Z"/>
  <path fill="black" d="M240,165 C245,155 252,148 258,142 C262,138 266,136 268,138 C270,140 268,145 265,150 C262,155 255,160 248,164 Z"/>
</svg>